# xmcd CD database file
#
# Track frame offsets:
#	150
#	15860
#	35422
#	52557
#	81470
#	106825
#	131526
#	153351
#	181435
#
# Disc length: 2659 seconds
#
# Revision: 0
# Processed by: cddbd v1.5.2PL0 Copyright (c) Steve Scherf et al.
# Submitted via: CDex 1.51
#
DISCID=5e0a6109
DTITLE=Taj Mahal Trio - 22. Juli 2006 Quasimodo Berlin (2|2)
DYEAR=2006
DGENRE=Blues
TTITLE0=Taj Mahal Trio - Fishin' Blues
TTITLE1=Taj Mahal Trio - Corinna
TTITLE2=Taj Mahal Trio - Moving Up To The Country And Paint My Mailbox Blue
TTITLE3=Taj Mahal Trio - Black Jack Davey
TTITLE4=Taj Mahal Trio - Doin' Time
TTITLE5=Taj Mahal Trio - Going To The River
TTITLE6=Taj Mahal Trio - Queen Bee
TTITLE7=Taj Mahal Trio - Sentidos Dulce
TTITLE8=Taj Mahal Trio - The Blues Is Allright
EXTD=YEAR: 2006
EXTT0=
EXTT1=
EXTT2=
EXTT3=
EXTT4=
EXTT5=
EXTT6=
EXTT7=
EXTT8=
PLAYORDER=
